# MagicaVoxel @ ephtracy

# material
mtllib Glass-1.mtl
usemtl palette

# normals
vn -1 0 0
vn 1 0 0
vn 0 0 1
vn 0 0 -1
vn 0 -1 0
vn 0 1 0

# texcoords
vt 0.978516 0.5
vt 0.990234 0.5

# verts and faces
v -17 0 -16
v -17 0 -17
v -17 4 -15
v -17 4 -16
v -17 8 -14
v -17 8 -15
v -17 9 -16
v -17 9 -17
v -17 10 -13
v -17 10 -14
v -17 11 -12
v -17 11 -13
v -17 11 -15
v -17 11 -16
v -17 12 17
v -17 12 7
v -17 12 -10
v -17 12 -12
v -17 12 -14
v -17 12 -15
v -17 13 7
v -17 13 -10
v -17 13 -13
v -17 13 -14
v -17 14 -11
v -17 14 -13
v -17 15 17
v -17 15 -11
f -25/2/1 -27/2/1 -28/2/1
f -23/2/1 -25/2/1 -26/2/1
f -22/2/1 -27/2/1 -25/2/1
f -22/2/1 -23/2/1 -24/2/1
f -22/2/1 -25/2/1 -23/2/1
f -21/2/1 -27/2/1 -22/2/1
f -19/2/1 -22/2/1 -24/2/1
f -17/2/1 -19/2/1 -20/2/1
f -16/2/1 -22/2/1 -19/2/1
f -16/2/1 -19/2/1 -17/2/1
f -15/2/1 -22/2/1 -16/2/1
f -11/2/1 -17/2/1 -18/2/1
f -11/2/1 -16/2/1 -17/2/1
f -10/2/1 -16/2/1 -11/2/1
f -9/2/1 -16/2/1 -10/2/1
f -8/2/1 -13/2/1 -14/2/1
f -7/2/1 -11/2/1 -12/2/1
f -7/2/1 -10/2/1 -11/2/1
f -6/2/1 -10/2/1 -7/2/1
f -5/2/1 -10/2/1 -6/2/1
f -4/2/1 -7/2/1 -8/2/1
f -4/2/1 -6/2/1 -7/2/1
f -3/2/1 -6/2/1 -4/2/1
f -2/2/1 -8/2/1 -14/2/1
f -2/2/1 -4/2/1 -8/2/1
f -1/2/1 -4/2/1 -2/2/1
v -16 10 17
v -16 10 16
v -16 12 17
v -16 12 16
f -2/2/1 -3/2/1 -4/2/1
f -1/2/1 -3/2/1 -2/2/1
v -15 9 17
v -15 9 16
v -15 10 17
v -15 10 16
f -2/2/1 -3/2/1 -4/2/1
f -1/2/1 -3/2/1 -2/2/1
v -14 8 17
v -14 8 16
v -14 9 17
v -14 9 16
v -14 15 17
v -14 15 16
v -14 16 17
v -14 16 16
f -6/2/1 -7/2/1 -8/2/1
f -5/2/1 -7/2/1 -6/2/1
f -2/2/1 -3/2/1 -4/2/1
f -1/2/1 -3/2/1 -2/2/1
v -12 7 17
v -12 7 16
v -12 8 17
v -12 8 16
f -2/2/1 -3/2/1 -4/2/1
f -1/2/1 -3/2/1 -2/2/1
v -6 8 17
v -6 8 16
v -6 9 17
v -6 9 16
f -2/2/1 -3/2/1 -4/2/1
f -1/2/1 -3/2/1 -2/2/1
v -4 9 17
v -4 9 16
v -4 10 17
v -4 10 16
v -4 14 17
v -4 14 16
v -4 15 17
v -4 15 16
f -6/2/1 -7/2/1 -8/2/1
f -5/2/1 -7/2/1 -6/2/1
f -2/2/1 -3/2/1 -4/2/1
f -1/2/1 -3/2/1 -2/2/1
v -3 10 17
v -3 10 16
v -3 11 17
v -3 11 16
f -2/2/1 -3/2/1 -4/2/1
f -1/2/1 -3/2/1 -2/2/1
v -2 11 17
v -2 11 16
v -2 14 17
v -2 14 16
f -2/2/1 -3/2/1 -4/2/1
f -1/2/1 -3/2/1 -2/2/1
v 1 10 17
v 1 10 16
v 1 13 17
v 1 13 16
f -2/2/1 -3/2/1 -4/2/1
f -1/2/1 -3/2/1 -2/2/1
v 2 9 17
v 2 9 16
v 2 10 17
v 2 10 16
f -2/2/1 -3/2/1 -4/2/1
f -1/2/1 -3/2/1 -2/2/1
v 3 8 17
v 3 8 16
v 3 9 17
v 3 9 16
v 3 15 17
v 3 15 16
v 3 16 17
v 3 16 16
f -6/2/1 -7/2/1 -8/2/1
f -5/2/1 -7/2/1 -6/2/1
f -2/2/1 -3/2/1 -4/2/1
f -1/2/1 -3/2/1 -2/2/1
v 5 7 17
v 5 7 16
v 5 8 17
v 5 8 16
f -2/2/1 -3/2/1 -4/2/1
f -1/2/1 -3/2/1 -2/2/1
v 11 8 17
v 11 8 16
v 11 9 17
v 11 9 16
f -2/2/1 -3/2/1 -4/2/1
f -1/2/1 -3/2/1 -2/2/1
v 13 9 17
v 13 9 16
v 13 10 17
v 13 10 16
v 13 14 17
v 13 14 16
v 13 15 17
v 13 15 16
f -6/2/1 -7/2/1 -8/2/1
f -5/2/1 -7/2/1 -6/2/1
f -2/2/1 -3/2/1 -4/2/1
f -1/2/1 -3/2/1 -2/2/1
v 14 10 17
v 14 10 16
v 14 11 17
v 14 11 16
v 14 14 16
v 14 14 15
v 14 15 16
v 14 15 15
f -6/2/1 -7/2/1 -8/2/1
f -5/2/1 -7/2/1 -6/2/1
f -2/1/1 -3/1/1 -4/1/1
f -1/1/1 -3/1/1 -2/1/1
v 15 11 17
v 15 11 16
v 15 13 16
v 15 13 14
v 15 14 17
v 15 14 16
v 15 14 15
v 15 15 15
v 15 15 14
f -7/2/1 -8/2/1 -9/2/1
f -5/2/1 -7/2/1 -9/2/1
f -4/1/1 -6/1/1 -7/1/1
f -4/2/1 -7/2/1 -5/2/1
f -3/1/1 -6/1/1 -4/1/1
f -2/1/1 -6/1/1 -3/1/1
f -1/1/1 -6/1/1 -2/1/1
v 16 0 -16
v 16 0 -17
v 16 4 -15
v 16 4 -16
v 16 8 -14
v 16 8 -15
v 16 9 -16
v 16 9 -17
v 16 10 -13
v 16 10 -14
v 16 11 -12
v 16 11 -13
v 16 11 -15
v 16 11 -16
v 16 12 16
v 16 12 7
v 16 12 -10
v 16 12 -12
v 16 12 -14
v 16 12 -15
v 16 13 16
v 16 13 14
v 16 13 7
v 16 13 -10
v 16 13 -13
v 16 13 -14
v 16 14 -11
v 16 14 -13
v 16 15 14
v 16 15 -11
f -27/2/1 -29/2/1 -30/2/1
f -25/2/1 -27/2/1 -28/2/1
f -24/2/1 -29/2/1 -27/2/1
f -24/2/1 -25/2/1 -26/2/1
f -24/2/1 -27/2/1 -25/2/1
f -23/2/1 -29/2/1 -24/2/1
f -21/2/1 -24/2/1 -26/2/1
f -19/2/1 -21/2/1 -22/2/1
f -18/2/1 -24/2/1 -21/2/1
f -18/2/1 -21/2/1 -19/2/1
f -17/2/1 -24/2/1 -18/2/1
f -13/2/1 -19/2/1 -20/2/1
f -13/2/1 -18/2/1 -19/2/1
f -12/2/1 -18/2/1 -13/2/1
f -11/2/1 -18/2/1 -12/2/1
f -10/2/1 -15/2/1 -16/2/1
f -9/2/1 -15/2/1 -10/2/1
f -8/2/1 -15/2/1 -9/2/1
f -7/2/1 -13/2/1 -14/2/1
f -7/2/1 -12/2/1 -13/2/1
f -6/2/1 -12/2/1 -7/2/1
f -5/2/1 -12/2/1 -6/2/1
f -4/2/1 -8/2/1 -9/2/1
f -4/2/1 -6/2/1 -7/2/1
f -4/2/1 -7/2/1 -8/2/1
f -3/2/1 -6/2/1 -4/2/1
f -2/2/1 -4/2/1 -9/2/1
f -1/2/1 -4/2/1 -2/2/1
v -16 0 -16
v -16 0 -17
v -16 4 -15
v -16 4 -16
v -16 8 -14
v -16 8 -15
v -16 9 -16
v -16 9 -17
v -16 10 -13
v -16 10 -14
v -16 11 -12
v -16 11 -13
v -16 11 -15
v -16 11 -16
v -16 12 16
v -16 12 7
v -16 12 -10
v -16 12 -12
v -16 12 -14
v -16 12 -15
v -16 13 16
v -16 13 14
v -16 13 7
v -16 13 -10
v -16 13 -13
v -16 13 -14
v -16 14 -11
v -16 14 -13
v -16 15 14
v -16 15 -11
f -30/2/2 -29/2/2 -27/2/2
f -28/2/2 -27/2/2 -25/2/2
f -27/2/2 -29/2/2 -24/2/2
f -26/2/2 -25/2/2 -24/2/2
f -25/2/2 -27/2/2 -24/2/2
f -24/2/2 -29/2/2 -23/2/2
f -26/2/2 -24/2/2 -21/2/2
f -22/2/2 -21/2/2 -19/2/2
f -21/2/2 -24/2/2 -18/2/2
f -19/2/2 -21/2/2 -18/2/2
f -18/2/2 -24/2/2 -17/2/2
f -20/2/2 -19/2/2 -13/2/2
f -19/2/2 -18/2/2 -13/2/2
f -13/2/2 -18/2/2 -12/2/2
f -12/2/2 -18/2/2 -11/2/2
f -16/2/2 -15/2/2 -10/2/2
f -10/2/2 -15/2/2 -9/2/2
f -9/2/2 -15/2/2 -8/2/2
f -14/2/2 -13/2/2 -7/2/2
f -13/2/2 -12/2/2 -7/2/2
f -7/2/2 -12/2/2 -6/2/2
f -6/2/2 -12/2/2 -5/2/2
f -9/2/2 -8/2/2 -4/2/2
f -7/2/2 -6/2/2 -4/2/2
f -8/2/2 -7/2/2 -4/2/2
f -4/2/2 -6/2/2 -3/2/2
f -9/2/2 -4/2/2 -2/2/2
f -2/2/2 -4/2/2 -1/2/2
v -15 11 17
v -15 11 16
v -15 13 16
v -15 13 14
v -15 14 17
v -15 14 16
v -15 14 15
v -15 15 15
v -15 15 14
f -9/2/2 -8/2/2 -7/2/2
f -9/2/2 -7/2/2 -5/2/2
f -7/1/2 -6/1/2 -4/1/2
f -5/2/2 -7/2/2 -4/2/2
f -4/1/2 -6/1/2 -3/1/2
f -3/1/2 -6/1/2 -2/1/2
f -2/1/2 -6/1/2 -1/1/2
v -14 10 17
v -14 10 16
v -14 11 17
v -14 11 16
v -14 14 16
v -14 14 15
v -14 15 16
v -14 15 15
f -8/2/2 -7/2/2 -6/2/2
f -6/2/2 -7/2/2 -5/2/2
f -4/1/2 -3/1/2 -2/1/2
f -2/1/2 -3/1/2 -1/1/2
v -13 9 17
v -13 9 16
v -13 10 17
v -13 10 16
v -13 14 17
v -13 14 16
v -13 15 17
v -13 15 16
f -8/2/2 -7/2/2 -6/2/2
f -6/2/2 -7/2/2 -5/2/2
f -4/2/2 -3/2/2 -2/2/2
f -2/2/2 -3/2/2 -1/2/2
v -11 8 17
v -11 8 16
v -11 9 17
v -11 9 16
f -4/2/2 -3/2/2 -2/2/2
f -2/2/2 -3/2/2 -1/2/2
v -5 7 17
v -5 7 16
v -5 8 17
v -5 8 16
f -4/2/2 -3/2/2 -2/2/2
f -2/2/2 -3/2/2 -1/2/2
v -3 8 17
v -3 8 16
v -3 9 17
v -3 9 16
v -3 15 17
v -3 15 16
v -3 16 17
v -3 16 16
f -8/2/2 -7/2/2 -6/2/2
f -6/2/2 -7/2/2 -5/2/2
f -4/2/2 -3/2/2 -2/2/2
f -2/2/2 -3/2/2 -1/2/2
v -2 9 17
v -2 9 16
v -2 10 17
v -2 10 16
f -4/2/2 -3/2/2 -2/2/2
f -2/2/2 -3/2/2 -1/2/2
v -1 10 17
v -1 10 16
v -1 13 17
v -1 13 16
f -4/2/2 -3/2/2 -2/2/2
f -2/2/2 -3/2/2 -1/2/2
v 2 11 17
v 2 11 16
v 2 14 17
v 2 14 16
f -4/2/2 -3/2/2 -2/2/2
f -2/2/2 -3/2/2 -1/2/2
v 3 10 17
v 3 10 16
v 3 11 17
v 3 11 16
f -4/2/2 -3/2/2 -2/2/2
f -2/2/2 -3/2/2 -1/2/2
v 4 9 17
v 4 9 16
v 4 10 17
v 4 10 16
v 4 14 17
v 4 14 16
v 4 15 17
v 4 15 16
f -8/2/2 -7/2/2 -6/2/2
f -6/2/2 -7/2/2 -5/2/2
f -4/2/2 -3/2/2 -2/2/2
f -2/2/2 -3/2/2 -1/2/2
v 6 8 17
v 6 8 16
v 6 9 17
v 6 9 16
f -4/2/2 -3/2/2 -2/2/2
f -2/2/2 -3/2/2 -1/2/2
v 12 7 17
v 12 7 16
v 12 8 17
v 12 8 16
f -4/2/2 -3/2/2 -2/2/2
f -2/2/2 -3/2/2 -1/2/2
v 14 8 17
v 14 8 16
v 14 9 17
v 14 9 16
v 14 15 17
v 14 15 16
v 14 16 17
v 14 16 16
f -8/2/2 -7/2/2 -6/2/2
f -6/2/2 -7/2/2 -5/2/2
f -4/2/2 -3/2/2 -2/2/2
f -2/2/2 -3/2/2 -1/2/2
v 15 9 17
v 15 9 16
v 15 10 17
v 15 10 16
f -4/2/2 -3/2/2 -2/2/2
f -2/2/2 -3/2/2 -1/2/2
v 16 10 17
v 16 10 16
v 16 12 17
v 16 12 16
f -4/2/2 -3/2/2 -2/2/2
f -2/2/2 -3/2/2 -1/2/2
v 17 0 -16
v 17 0 -17
v 17 4 -15
v 17 4 -16
v 17 8 -14
v 17 8 -15
v 17 9 -16
v 17 9 -17
v 17 10 -13
v 17 10 -14
v 17 11 -12
v 17 11 -13
v 17 11 -15
v 17 11 -16
v 17 12 17
v 17 12 7
v 17 12 -10
v 17 12 -12
v 17 12 -14
v 17 12 -15
v 17 13 7
v 17 13 -10
v 17 13 -13
v 17 13 -14
v 17 14 -11
v 17 14 -13
v 17 15 17
v 17 15 -11
f -28/2/2 -27/2/2 -25/2/2
f -26/2/2 -25/2/2 -23/2/2
f -25/2/2 -27/2/2 -22/2/2
f -24/2/2 -23/2/2 -22/2/2
f -23/2/2 -25/2/2 -22/2/2
f -22/2/2 -27/2/2 -21/2/2
f -24/2/2 -22/2/2 -19/2/2
f -20/2/2 -19/2/2 -17/2/2
f -19/2/2 -22/2/2 -16/2/2
f -17/2/2 -19/2/2 -16/2/2
f -16/2/2 -22/2/2 -15/2/2
f -18/2/2 -17/2/2 -11/2/2
f -17/2/2 -16/2/2 -11/2/2
f -11/2/2 -16/2/2 -10/2/2
f -10/2/2 -16/2/2 -9/2/2
f -14/2/2 -13/2/2 -8/2/2
f -12/2/2 -11/2/2 -7/2/2
f -11/2/2 -10/2/2 -7/2/2
f -7/2/2 -10/2/2 -6/2/2
f -6/2/2 -10/2/2 -5/2/2
f -8/2/2 -7/2/2 -4/2/2
f -7/2/2 -6/2/2 -4/2/2
f -4/2/2 -6/2/2 -3/2/2
f -14/2/2 -8/2/2 -2/2/2
f -8/2/2 -4/2/2 -2/2/2
f -2/2/2 -4/2/2 -1/2/2
v -17 12 17
v -17 15 17
v -16 10 17
v -16 12 17
v -15 9 17
v -15 10 17
v -15 11 17
v -15 14 17
v -14 8 17
v -14 9 17
v -14 10 17
v -14 11 17
v -14 15 17
v -14 16 17
v -13 9 17
v -13 10 17
v -13 14 17
v -13 15 17
v -12 7 17
v -12 8 17
v -11 8 17
v -11 9 17
v -6 8 17
v -6 9 17
v -5 7 17
v -5 8 17
v -4 9 17
v -4 10 17
v -4 14 17
v -4 15 17
v -3 8 17
v -3 9 17
v -3 10 17
v -3 11 17
v -3 15 17
v -3 16 17
v -2 9 17
v -2 10 17
v -2 11 17
v -2 14 17
v -1 10 17
v -1 13 17
v 1 10 17
v 1 13 17
v 2 9 17
v 2 10 17
v 2 11 17
v 2 14 17
v 3 8 17
v 3 9 17
v 3 10 17
v 3 11 17
v 3 15 17
v 3 16 17
v 4 9 17
v 4 10 17
v 4 14 17
v 4 15 17
v 5 7 17
v 5 8 17
v 6 8 17
v 6 9 17
v 11 8 17
v 11 9 17
v 12 7 17
v 12 8 17
v 13 9 17
v 13 10 17
v 13 14 17
v 13 15 17
v 14 8 17
v 14 9 17
v 14 10 17
v 14 11 17
v 14 15 17
v 14 16 17
v 15 9 17
v 15 10 17
v 15 11 17
v 15 14 17
v 16 10 17
v 16 12 17
v 17 12 17
v 17 15 17
f -81/2/3 -83/2/3 -84/2/3
f -79/2/3 -81/2/3 -82/2/3
f -78/2/3 -81/2/3 -79/2/3
f -77/2/3 -83/2/3 -81/2/3
f -77/2/3 -81/2/3 -78/2/3
f -75/2/3 -78/2/3 -79/2/3
f -75/2/3 -79/2/3 -80/2/3
f -74/2/3 -78/2/3 -75/2/3
f -73/2/3 -78/2/3 -74/2/3
f -72/2/3 -83/2/3 -77/2/3
f -70/2/3 -75/2/3 -76/2/3
f -70/2/3 -74/2/3 -75/2/3
f -69/2/3 -74/2/3 -70/2/3
f -68/2/3 -71/2/3 -72/2/3
f -68/2/3 -72/2/3 -77/2/3
f -67/2/3 -71/2/3 -68/2/3
f -65/2/3 -70/2/3 -76/2/3
f -64/2/3 -70/2/3 -65/2/3
f -64/2/3 -65/2/3 -66/2/3
f -63/2/3 -70/2/3 -64/2/3
f -62/2/3 -64/2/3 -66/2/3
f -60/2/3 -62/2/3 -66/2/3
f -60/2/3 -61/2/3 -62/2/3
f -59/2/3 -61/2/3 -60/2/3
f -58/2/3 -61/2/3 -59/2/3
f -55/2/3 -71/2/3 -67/2/3
f -54/2/3 -57/2/3 -58/2/3
f -54/2/3 -58/2/3 -59/2/3
f -53/2/3 -57/2/3 -54/2/3
f -52/2/3 -57/2/3 -53/2/3
f -50/2/3 -55/2/3 -56/2/3
f -50/2/3 -71/2/3 -55/2/3
f -49/2/3 -71/2/3 -50/2/3
f -48/2/3 -51/2/3 -52/2/3
f -48/2/3 -52/2/3 -53/2/3
f -47/2/3 -51/2/3 -48/2/3
f -46/2/3 -51/2/3 -47/2/3
f -45/2/3 -50/2/3 -56/2/3
f -44/2/3 -46/2/3 -47/2/3
f -44/2/3 -45/2/3 -46/2/3
f -43/2/3 -45/2/3 -44/2/3
f -41/2/3 -45/2/3 -43/2/3
f -39/2/3 -41/2/3 -42/2/3
f -38/2/3 -41/2/3 -39/2/3
f -37/2/3 -50/2/3 -45/2/3
f -37/2/3 -41/2/3 -38/2/3
f -37/2/3 -45/2/3 -41/2/3
f -35/2/3 -38/2/3 -39/2/3
f -35/2/3 -39/2/3 -40/2/3
f -34/2/3 -38/2/3 -35/2/3
f -33/2/3 -38/2/3 -34/2/3
f -32/2/3 -50/2/3 -37/2/3
f -30/2/3 -35/2/3 -36/2/3
f -30/2/3 -34/2/3 -35/2/3
f -29/2/3 -34/2/3 -30/2/3
f -28/2/3 -31/2/3 -32/2/3
f -28/2/3 -32/2/3 -37/2/3
f -27/2/3 -31/2/3 -28/2/3
f -25/2/3 -30/2/3 -36/2/3
f -24/2/3 -30/2/3 -25/2/3
f -24/2/3 -25/2/3 -26/2/3
f -23/2/3 -30/2/3 -24/2/3
f -22/2/3 -24/2/3 -26/2/3
f -20/2/3 -22/2/3 -26/2/3
f -20/2/3 -21/2/3 -22/2/3
f -19/2/3 -21/2/3 -20/2/3
f -18/2/3 -21/2/3 -19/2/3
f -15/2/3 -31/2/3 -27/2/3
f -14/2/3 -17/2/3 -18/2/3
f -14/2/3 -18/2/3 -19/2/3
f -13/2/3 -17/2/3 -14/2/3
f -12/2/3 -17/2/3 -13/2/3
f -10/2/3 -15/2/3 -16/2/3
f -10/2/3 -31/2/3 -15/2/3
f -9/2/3 -31/2/3 -10/2/3
f -8/2/3 -11/2/3 -12/2/3
f -8/2/3 -12/2/3 -13/2/3
f -7/2/3 -11/2/3 -8/2/3
f -6/2/3 -11/2/3 -7/2/3
f -5/2/3 -10/2/3 -16/2/3
f -4/2/3 -6/2/3 -7/2/3
f -4/2/3 -5/2/3 -6/2/3
f -3/2/3 -5/2/3 -4/2/3
f -2/2/3 -5/2/3 -3/2/3
f -1/2/3 -10/2/3 -5/2/3
f -1/2/3 -5/2/3 -2/2/3
v -17 12 -10
v -17 13 -10
v -16 12 -10
v -16 13 -10
v 16 12 -10
v 16 13 -10
v 17 12 -10
v 17 13 -10
f -6/2/3 -7/2/3 -8/2/3
f -5/2/3 -7/2/3 -6/2/3
f -2/2/3 -3/2/3 -4/2/3
f -1/2/3 -3/2/3 -2/2/3
v -17 11 -12
v -17 12 -12
v -16 11 -12
v -16 12 -12
v 16 11 -12
v 16 12 -12
v 17 11 -12
v 17 12 -12
f -6/2/3 -7/2/3 -8/2/3
f -5/2/3 -7/2/3 -6/2/3
f -2/2/3 -3/2/3 -4/2/3
f -1/2/3 -3/2/3 -2/2/3
v -17 10 -13
v -17 11 -13
v -16 10 -13
v -16 11 -13
v 16 10 -13
v 16 11 -13
v 17 10 -13
v 17 11 -13
f -6/2/3 -7/2/3 -8/2/3
f -5/2/3 -7/2/3 -6/2/3
f -2/2/3 -3/2/3 -4/2/3
f -1/2/3 -3/2/3 -2/2/3
v -17 8 -14
v -17 10 -14
v -16 8 -14
v -16 10 -14
v 16 8 -14
v 16 10 -14
v 17 8 -14
v 17 10 -14
f -6/2/3 -7/2/3 -8/2/3
f -5/2/3 -7/2/3 -6/2/3
f -2/2/3 -3/2/3 -4/2/3
f -1/2/3 -3/2/3 -2/2/3
v -17 4 -15
v -17 8 -15
v -16 4 -15
v -16 8 -15
v 16 4 -15
v 16 8 -15
v 17 4 -15
v 17 8 -15
f -6/2/3 -7/2/3 -8/2/3
f -5/2/3 -7/2/3 -6/2/3
f -2/2/3 -3/2/3 -4/2/3
f -1/2/3 -3/2/3 -2/2/3
v -17 0 -16
v -17 4 -16
v -16 0 -16
v -16 4 -16
v 16 0 -16
v 16 4 -16
v 17 0 -16
v 17 4 -16
f -6/2/3 -7/2/3 -8/2/3
f -5/2/3 -7/2/3 -6/2/3
f -2/2/3 -3/2/3 -4/2/3
f -1/2/3 -3/2/3 -2/2/3
v -16 10 16
v -16 12 16
v -16 13 16
v -15 9 16
v -15 10 16
v -15 11 16
v -15 13 16
v -14 8 16
v -14 9 16
v -14 10 16
v -14 11 16
v -14 14 16
v -14 15 16
v -14 16 16
v -13 9 16
v -13 10 16
v -13 14 16
v -13 15 16
v -12 7 16
v -12 8 16
v -11 8 16
v -11 9 16
v -6 8 16
v -6 9 16
v -5 7 16
v -5 8 16
v -4 9 16
v -4 10 16
v -4 14 16
v -4 15 16
v -3 8 16
v -3 9 16
v -3 10 16
v -3 11 16
v -3 15 16
v -3 16 16
v -2 9 16
v -2 10 16
v -2 11 16
v -2 14 16
v -1 10 16
v -1 13 16
v 1 10 16
v 1 13 16
v 2 9 16
v 2 10 16
v 2 11 16
v 2 14 16
v 3 8 16
v 3 9 16
v 3 10 16
v 3 11 16
v 3 15 16
v 3 16 16
v 4 9 16
v 4 10 16
v 4 14 16
v 4 15 16
v 5 7 16
v 5 8 16
v 6 8 16
v 6 9 16
v 11 8 16
v 11 9 16
v 12 7 16
v 12 8 16
v 13 9 16
v 13 10 16
v 13 14 16
v 13 15 16
v 14 8 16
v 14 9 16
v 14 10 16
v 14 11 16
v 14 14 16
v 14 15 16
v 14 16 16
v 15 9 16
v 15 10 16
v 15 11 16
v 15 13 16
v 16 10 16
v 16 12 16
v 16 13 16
f -84/2/4 -83/2/4 -80/2/4
f -83/2/4 -82/2/4 -80/2/4
f -80/2/4 -82/2/4 -79/2/4
f -79/2/4 -82/2/4 -78/2/4
f -81/2/4 -80/2/4 -76/2/4
f -80/2/4 -79/2/4 -76/2/4
f -76/2/4 -79/2/4 -75/2/4
f -75/2/4 -79/2/4 -74/2/4
f -77/2/4 -76/2/4 -70/2/4
f -76/2/4 -75/2/4 -70/2/4
f -70/2/4 -75/2/4 -69/2/4
f -72/2/4 -71/2/4 -68/2/4
f -73/2/4 -72/2/4 -68/2/4
f -68/2/4 -71/2/4 -67/2/4
f -77/2/4 -70/2/4 -65/2/4
f -65/2/4 -70/2/4 -64/2/4
f -66/2/4 -65/2/4 -64/2/4
f -64/2/4 -70/2/4 -63/2/4
f -66/2/4 -64/2/4 -62/2/4
f -66/2/4 -62/2/4 -60/2/4
f -62/2/4 -61/2/4 -60/2/4
f -60/2/4 -61/2/4 -59/2/4
f -59/2/4 -61/2/4 -58/2/4
f -67/2/4 -71/2/4 -55/2/4
f -58/2/4 -57/2/4 -54/2/4
f -59/2/4 -58/2/4 -54/2/4
f -54/2/4 -57/2/4 -53/2/4
f -53/2/4 -57/2/4 -52/2/4
f -56/2/4 -55/2/4 -50/2/4
f -55/2/4 -71/2/4 -50/2/4
f -50/2/4 -71/2/4 -49/2/4
f -52/2/4 -51/2/4 -48/2/4
f -53/2/4 -52/2/4 -48/2/4
f -48/2/4 -51/2/4 -47/2/4
f -47/2/4 -51/2/4 -46/2/4
f -56/2/4 -50/2/4 -45/2/4
f -47/2/4 -46/2/4 -44/2/4
f -46/2/4 -45/2/4 -44/2/4
f -44/2/4 -45/2/4 -43/2/4
f -43/2/4 -45/2/4 -41/2/4
f -42/2/4 -41/2/4 -39/2/4
f -39/2/4 -41/2/4 -38/2/4
f -45/2/4 -50/2/4 -37/2/4
f -38/2/4 -41/2/4 -37/2/4
f -41/2/4 -45/2/4 -37/2/4
f -39/2/4 -38/2/4 -35/2/4
f -40/2/4 -39/2/4 -35/2/4
f -35/2/4 -38/2/4 -34/2/4
f -34/2/4 -38/2/4 -33/2/4
f -37/2/4 -50/2/4 -32/2/4
f -36/2/4 -35/2/4 -30/2/4
f -35/2/4 -34/2/4 -30/2/4
f -30/2/4 -34/2/4 -29/2/4
f -32/2/4 -31/2/4 -28/2/4
f -37/2/4 -32/2/4 -28/2/4
f -28/2/4 -31/2/4 -27/2/4
f -36/2/4 -30/2/4 -25/2/4
f -25/2/4 -30/2/4 -24/2/4
f -26/2/4 -25/2/4 -24/2/4
f -24/2/4 -30/2/4 -23/2/4
f -26/2/4 -24/2/4 -22/2/4
f -26/2/4 -22/2/4 -20/2/4
f -22/2/4 -21/2/4 -20/2/4
f -20/2/4 -21/2/4 -19/2/4
f -19/2/4 -21/2/4 -18/2/4
f -27/2/4 -31/2/4 -15/2/4
f -18/2/4 -17/2/4 -14/2/4
f -19/2/4 -18/2/4 -14/2/4
f -14/2/4 -17/2/4 -13/2/4
f -13/2/4 -17/2/4 -12/2/4
f -16/2/4 -15/2/4 -10/2/4
f -15/2/4 -31/2/4 -9/2/4
f -10/2/4 -15/2/4 -9/2/4
f -9/2/4 -31/2/4 -8/2/4
f -12/2/4 -11/2/4 -7/2/4
f -13/2/4 -12/2/4 -7/2/4
f -7/2/4 -11/2/4 -6/2/4
f -6/2/4 -11/2/4 -5/2/4
f -5/2/4 -4/2/4 -3/2/4
f -6/2/4 -5/2/4 -3/2/4
f -3/2/4 -4/2/4 -2/2/4
f -2/2/4 -4/2/4 -1/2/4
v -15 14 15
v -15 15 15
v -14 14 15
v -14 15 15
v 14 14 15
v 14 15 15
v 15 14 15
v 15 15 15
f -8/1/4 -7/1/4 -6/1/4
f -6/1/4 -7/1/4 -5/1/4
f -4/1/4 -3/1/4 -2/1/4
f -2/1/4 -3/1/4 -1/1/4
v -16 13 14
v -16 15 14
v -15 13 14
v -15 15 14
v 15 13 14
v 15 15 14
v 16 13 14
v 16 15 14
f -8/1/4 -7/1/4 -6/1/4
f -6/1/4 -7/1/4 -5/1/4
f -4/1/4 -3/1/4 -2/1/4
f -2/1/4 -3/1/4 -1/1/4
v -17 12 7
v -17 13 7
v -16 12 7
v -16 13 7
v 16 12 7
v 16 13 7
v 17 12 7
v 17 13 7
f -8/2/4 -7/2/4 -6/2/4
f -6/2/4 -7/2/4 -5/2/4
f -4/2/4 -3/2/4 -2/2/4
f -2/2/4 -3/2/4 -1/2/4
v -17 14 -11
v -17 15 -11
v -16 14 -11
v -16 15 -11
v 16 14 -11
v 16 15 -11
v 17 14 -11
v 17 15 -11
f -8/2/4 -7/2/4 -6/2/4
f -6/2/4 -7/2/4 -5/2/4
f -4/2/4 -3/2/4 -2/2/4
f -2/2/4 -3/2/4 -1/2/4
v -17 13 -13
v -17 14 -13
v -16 13 -13
v -16 14 -13
v 16 13 -13
v 16 14 -13
v 17 13 -13
v 17 14 -13
f -8/2/4 -7/2/4 -6/2/4
f -6/2/4 -7/2/4 -5/2/4
f -4/2/4 -3/2/4 -2/2/4
f -2/2/4 -3/2/4 -1/2/4
v -17 12 -14
v -17 13 -14
v -16 12 -14
v -16 13 -14
v 16 12 -14
v 16 13 -14
v 17 12 -14
v 17 13 -14
f -8/2/4 -7/2/4 -6/2/4
f -6/2/4 -7/2/4 -5/2/4
f -4/2/4 -3/2/4 -2/2/4
f -2/2/4 -3/2/4 -1/2/4
v -17 11 -15
v -17 12 -15
v -16 11 -15
v -16 12 -15
v 16 11 -15
v 16 12 -15
v 17 11 -15
v 17 12 -15
f -8/2/4 -7/2/4 -6/2/4
f -6/2/4 -7/2/4 -5/2/4
f -4/2/4 -3/2/4 -2/2/4
f -2/2/4 -3/2/4 -1/2/4
v -17 9 -16
v -17 11 -16
v -16 9 -16
v -16 11 -16
v 16 9 -16
v 16 11 -16
v 17 9 -16
v 17 11 -16
f -8/2/4 -7/2/4 -6/2/4
f -6/2/4 -7/2/4 -5/2/4
f -4/2/4 -3/2/4 -2/2/4
f -2/2/4 -3/2/4 -1/2/4
v -17 0 -17
v -17 9 -17
v -16 0 -17
v -16 9 -17
v 16 0 -17
v 16 9 -17
v 17 0 -17
v 17 9 -17
f -8/2/4 -7/2/4 -6/2/4
f -6/2/4 -7/2/4 -5/2/4
f -4/2/4 -3/2/4 -2/2/4
f -2/2/4 -3/2/4 -1/2/4
v -17 0 -16
v -16 0 -16
v 16 0 -16
v 17 0 -16
v -17 0 -17
v -16 0 -17
v 16 0 -17
v 17 0 -17
f -4/2/5 -7/2/5 -8/2/5
f -3/2/5 -7/2/5 -4/2/5
f -2/2/5 -5/2/5 -6/2/5
f -1/2/5 -5/2/5 -2/2/5
v -17 4 -15
v -16 4 -15
v 16 4 -15
v 17 4 -15
v -17 4 -16
v -16 4 -16
v 16 4 -16
v 17 4 -16
f -4/2/5 -7/2/5 -8/2/5
f -3/2/5 -7/2/5 -4/2/5
f -2/2/5 -5/2/5 -6/2/5
f -1/2/5 -5/2/5 -2/2/5
v -12 7 17
v -5 7 17
v 5 7 17
v 12 7 17
v -12 7 16
v -5 7 16
v 5 7 16
v 12 7 16
f -4/2/5 -7/2/5 -8/2/5
f -3/2/5 -7/2/5 -4/2/5
f -2/2/5 -5/2/5 -6/2/5
f -1/2/5 -5/2/5 -2/2/5
v -14 8 17
v -12 8 17
v -5 8 17
v -3 8 17
v 3 8 17
v 5 8 17
v 12 8 17
v 14 8 17
v -14 8 16
v -12 8 16
v -5 8 16
v -3 8 16
v 3 8 16
v 5 8 16
v 12 8 16
v 14 8 16
v -17 8 -14
v -16 8 -14
v 16 8 -14
v 17 8 -14
v -17 8 -15
v -16 8 -15
v 16 8 -15
v 17 8 -15
f -16/2/5 -23/2/5 -24/2/5
f -15/2/5 -23/2/5 -16/2/5
f -14/2/5 -21/2/5 -22/2/5
f -13/2/5 -21/2/5 -14/2/5
f -12/2/5 -19/2/5 -20/2/5
f -11/2/5 -19/2/5 -12/2/5
f -10/2/5 -17/2/5 -18/2/5
f -9/2/5 -17/2/5 -10/2/5
f -4/2/5 -7/2/5 -8/2/5
f -3/2/5 -7/2/5 -4/2/5
f -2/2/5 -5/2/5 -6/2/5
f -1/2/5 -5/2/5 -2/2/5
v -15 9 17
v -14 9 17
v -3 9 17
v -2 9 17
v 2 9 17
v 3 9 17
v 14 9 17
v 15 9 17
v -15 9 16
v -14 9 16
v -3 9 16
v -2 9 16
v 2 9 16
v 3 9 16
v 14 9 16
v 15 9 16
f -8/2/5 -15/2/5 -16/2/5
f -7/2/5 -15/2/5 -8/2/5
f -6/2/5 -13/2/5 -14/2/5
f -5/2/5 -13/2/5 -6/2/5
f -4/2/5 -11/2/5 -12/2/5
f -3/2/5 -11/2/5 -4/2/5
f -2/2/5 -9/2/5 -10/2/5
f -1/2/5 -9/2/5 -2/2/5
v -16 10 17
v -15 10 17
v -2 10 17
v -1 10 17
v 1 10 17
v 2 10 17
v 15 10 17
v 16 10 17
v -16 10 16
v -15 10 16
v -2 10 16
v -1 10 16
v 1 10 16
v 2 10 16
v 15 10 16
v 16 10 16
v -17 10 -13
v -16 10 -13
v 16 10 -13
v 17 10 -13
v -17 10 -14
v -16 10 -14
v 16 10 -14
v 17 10 -14
f -16/2/5 -23/2/5 -24/2/5
f -15/2/5 -23/2/5 -16/2/5
f -14/2/5 -21/2/5 -22/2/5
f -13/2/5 -21/2/5 -14/2/5
f -12/2/5 -19/2/5 -20/2/5
f -11/2/5 -19/2/5 -12/2/5
f -10/2/5 -17/2/5 -18/2/5
f -9/2/5 -17/2/5 -10/2/5
f -4/2/5 -7/2/5 -8/2/5
f -3/2/5 -7/2/5 -4/2/5
f -2/2/5 -5/2/5 -6/2/5
f -1/2/5 -5/2/5 -2/2/5
v -17 11 -12
v -16 11 -12
v 16 11 -12
v 17 11 -12
v -17 11 -13
v -16 11 -13
v 16 11 -13
v 17 11 -13
f -4/2/5 -7/2/5 -8/2/5
f -3/2/5 -7/2/5 -4/2/5
f -2/2/5 -5/2/5 -6/2/5
f -1/2/5 -5/2/5 -2/2/5
v -17 12 17
v -16 12 17
v 16 12 17
v 17 12 17
v -16 12 16
v 16 12 16
v -17 12 7
v -16 12 7
v 16 12 7
v 17 12 7
v -17 12 -10
v -16 12 -10
v 16 12 -10
v 17 12 -10
v -17 12 -12
v -16 12 -12
v 16 12 -12
v 17 12 -12
f -14/2/5 -17/2/5 -18/2/5
f -13/2/5 -15/2/5 -16/2/5
f -12/2/5 -14/2/5 -18/2/5
f -11/2/5 -14/2/5 -12/2/5
f -10/2/5 -15/2/5 -13/2/5
f -9/2/5 -15/2/5 -10/2/5
f -4/2/5 -7/2/5 -8/2/5
f -3/2/5 -7/2/5 -4/2/5
f -2/2/5 -5/2/5 -6/2/5
f -1/2/5 -5/2/5 -2/2/5
v -1 13 17
v 1 13 17
v -16 13 16
v -15 13 16
v -1 13 16
v 1 13 16
v 15 13 16
v 16 13 16
v -16 13 14
v -15 13 14
v 15 13 14
v 16 13 14
v -17 13 7
v -16 13 7
v 16 13 7
v 17 13 7
v -17 13 -10
v -16 13 -10
v 16 13 -10
v 17 13 -10
f -16/2/5 -19/2/5 -20/2/5
f -15/2/5 -19/2/5 -16/2/5
f -12/1/5 -17/1/5 -18/1/5
f -11/1/5 -17/1/5 -12/1/5
f -10/1/5 -13/1/5 -14/1/5
f -9/1/5 -13/1/5 -10/1/5
f -4/2/5 -7/2/5 -8/2/5
f -3/2/5 -7/2/5 -4/2/5
f -2/2/5 -5/2/5 -6/2/5
f -1/2/5 -5/2/5 -2/2/5
v -15 14 17
v -13 14 17
v -4 14 17
v -2 14 17
v 2 14 17
v 4 14 17
v 13 14 17
v 15 14 17
v -15 14 16
v -14 14 16
v -13 14 16
v -4 14 16
v -2 14 16
v 2 14 16
v 4 14 16
v 13 14 16
v 14 14 16
v 15 14 16
v -15 14 15
v -14 14 15
v 14 14 15
v 15 14 15
f -14/2/5 -21/2/5 -22/2/5
f -13/2/5 -21/2/5 -14/2/5
f -12/2/5 -21/2/5 -13/2/5
f -11/2/5 -19/2/5 -20/2/5
f -10/2/5 -19/2/5 -11/2/5
f -9/2/5 -17/2/5 -18/2/5
f -8/2/5 -17/2/5 -9/2/5
f -7/2/5 -15/2/5 -16/2/5
f -6/2/5 -15/2/5 -7/2/5
f -5/2/5 -15/2/5 -6/2/5
f -4/1/5 -13/1/5 -14/1/5
f -3/1/5 -13/1/5 -4/1/5
f -2/1/5 -5/1/5 -6/1/5
f -1/1/5 -5/1/5 -2/1/5
v -13 15 17
v -4 15 17
v 4 15 17
v 13 15 17
v -13 15 16
v -4 15 16
v 4 15 16
v 13 15 16
f -4/2/5 -7/2/5 -8/2/5
f -3/2/5 -7/2/5 -4/2/5
f -2/2/5 -5/2/5 -6/2/5
f -1/2/5 -5/2/5 -2/2/5
v -11 8 17
v -6 8 17
v 6 8 17
v 11 8 17
v -11 8 16
v -6 8 16
v 6 8 16
v 11 8 16
f -8/2/6 -7/2/6 -4/2/6
f -4/2/6 -7/2/6 -3/2/6
f -6/2/6 -5/2/6 -2/2/6
f -2/2/6 -5/2/6 -1/2/6
v -13 9 17
v -11 9 17
v -6 9 17
v -4 9 17
v 4 9 17
v 6 9 17
v 11 9 17
v 13 9 17
v -13 9 16
v -11 9 16
v -6 9 16
v -4 9 16
v 4 9 16
v 6 9 16
v 11 9 16
v 13 9 16
v -17 9 -16
v -16 9 -16
v 16 9 -16
v 17 9 -16
v -17 9 -17
v -16 9 -17
v 16 9 -17
v 17 9 -17
f -24/2/6 -23/2/6 -16/2/6
f -16/2/6 -23/2/6 -15/2/6
f -22/2/6 -21/2/6 -14/2/6
f -14/2/6 -21/2/6 -13/2/6
f -20/2/6 -19/2/6 -12/2/6
f -12/2/6 -19/2/6 -11/2/6
f -18/2/6 -17/2/6 -10/2/6
f -10/2/6 -17/2/6 -9/2/6
f -8/2/6 -7/2/6 -4/2/6
f -4/2/6 -7/2/6 -3/2/6
f -6/2/6 -5/2/6 -2/2/6
f -2/2/6 -5/2/6 -1/2/6
v -14 10 17
v -13 10 17
v -4 10 17
v -3 10 17
v 3 10 17
v 4 10 17
v 13 10 17
v 14 10 17
v -14 10 16
v -13 10 16
v -4 10 16
v -3 10 16
v 3 10 16
v 4 10 16
v 13 10 16
v 14 10 16
f -16/2/6 -15/2/6 -8/2/6
f -8/2/6 -15/2/6 -7/2/6
f -14/2/6 -13/2/6 -6/2/6
f -6/2/6 -13/2/6 -5/2/6
f -12/2/6 -11/2/6 -4/2/6
f -4/2/6 -11/2/6 -3/2/6
f -10/2/6 -9/2/6 -2/2/6
f -2/2/6 -9/2/6 -1/2/6
v -15 11 17
v -14 11 17
v -3 11 17
v -2 11 17
v 2 11 17
v 3 11 17
v 14 11 17
v 15 11 17
v -15 11 16
v -14 11 16
v -3 11 16
v -2 11 16
v 2 11 16
v 3 11 16
v 14 11 16
v 15 11 16
v -17 11 -15
v -16 11 -15
v 16 11 -15
v 17 11 -15
v -17 11 -16
v -16 11 -16
v 16 11 -16
v 17 11 -16
f -24/2/6 -23/2/6 -16/2/6
f -16/2/6 -23/2/6 -15/2/6
f -22/2/6 -21/2/6 -14/2/6
f -14/2/6 -21/2/6 -13/2/6
f -20/2/6 -19/2/6 -12/2/6
f -12/2/6 -19/2/6 -11/2/6
f -18/2/6 -17/2/6 -10/2/6
f -10/2/6 -17/2/6 -9/2/6
f -8/2/6 -7/2/6 -4/2/6
f -4/2/6 -7/2/6 -3/2/6
f -6/2/6 -5/2/6 -2/2/6
f -2/2/6 -5/2/6 -1/2/6
v -17 12 -14
v -16 12 -14
v 16 12 -14
v 17 12 -14
v -17 12 -15
v -16 12 -15
v 16 12 -15
v 17 12 -15
f -8/2/6 -7/2/6 -4/2/6
f -4/2/6 -7/2/6 -3/2/6
f -6/2/6 -5/2/6 -2/2/6
f -2/2/6 -5/2/6 -1/2/6
v -17 13 -13
v -16 13 -13
v 16 13 -13
v 17 13 -13
v -17 13 -14
v -16 13 -14
v 16 13 -14
v 17 13 -14
f -8/2/6 -7/2/6 -4/2/6
f -4/2/6 -7/2/6 -3/2/6
f -6/2/6 -5/2/6 -2/2/6
f -2/2/6 -5/2/6 -1/2/6
v -17 14 -11
v -16 14 -11
v 16 14 -11
v 17 14 -11
v -17 14 -13
v -16 14 -13
v 16 14 -13
v 17 14 -13
f -8/2/6 -7/2/6 -4/2/6
f -4/2/6 -7/2/6 -3/2/6
f -6/2/6 -5/2/6 -2/2/6
f -2/2/6 -5/2/6 -1/2/6
v -17 15 17
v -14 15 17
v -3 15 17
v 3 15 17
v 14 15 17
v 17 15 17
v -16 15 16
v -14 15 16
v -3 15 16
v 3 15 16
v 14 15 16
v 16 15 16
v -15 15 15
v -14 15 15
v 14 15 15
v 15 15 15
v -16 15 14
v -15 15 14
v 15 15 14
v 16 15 14
v -17 15 -11
v -16 15 -11
v 16 15 -11
v 17 15 -11
f -24/2/6 -23/2/6 -18/2/6
f -18/2/6 -23/2/6 -17/2/6
f -22/2/6 -21/2/6 -16/2/6
f -16/2/6 -21/2/6 -15/2/6
f -20/2/6 -19/2/6 -14/2/6
f -14/2/6 -19/2/6 -13/2/6
f -18/1/6 -17/1/6 -12/1/6
f -12/1/6 -17/1/6 -11/1/6
f -14/1/6 -13/1/6 -10/1/6
f -10/1/6 -13/1/6 -9/1/6
f -24/2/6 -18/2/6 -8/2/6
f -18/1/6 -12/1/6 -8/1/6
f -8/1/6 -12/1/6 -7/1/6
f -9/1/6 -13/1/6 -6/1/6
f -13/2/6 -19/2/6 -5/2/6
f -6/1/6 -13/1/6 -5/1/6
f -24/2/6 -8/2/6 -4/2/6
f -4/2/6 -8/2/6 -3/2/6
f -5/2/6 -19/2/6 -2/2/6
f -2/2/6 -19/2/6 -1/2/6
v -14 16 17
v -3 16 17
v 3 16 17
v 14 16 17
v -14 16 16
v -3 16 16
v 3 16 16
v 14 16 16
f -8/2/6 -7/2/6 -4/2/6
f -4/2/6 -7/2/6 -3/2/6
f -6/2/6 -5/2/6 -2/2/6
f -2/2/6 -5/2/6 -1/2/6
